<svg width="17" height="18" viewBox="0 0 17 18" fill="none" xmlns="http://www.w3.org/2000/svg">
<path fill-rule="evenodd" clip-rule="evenodd" d="M8.5 0.0146484C8.9543 0.0146484 9.32258 0.38293 9.32258 0.837229V7.69207H16.1774C16.6317 7.69207 17 8.06035 17 8.51465C17 8.96895 16.6317 9.33723 16.1774 9.33723H9.32258V16.1921C9.32258 16.6464 8.9543 17.0146 8.5 17.0146C8.0457 17.0146 7.67742 16.6464 7.67742 16.1921V9.33723H0.822581C0.368282 9.33723 0 8.96895 0 8.51465C0 8.06035 0.368282 7.69207 0.822581 7.69207H7.67742V0.837229C7.67742 0.38293 8.0457 0.0146484 8.5 0.0146484Z" fill="#6B6B6B"/>
</svg>
