<svg width="48" height="48" viewBox="0 0 48 48" fill="none" xmlns="http://www.w3.org/2000/svg">
<path fill-rule="evenodd" clip-rule="evenodd" d="M0 24C0 37.2548 10.7452 48 24 48C37.2548 48 48 37.2548 48 24C48 10.7452 37.2548 0 24 0C10.7452 0 0 10.7452 0 24ZM39.0621 23.0815C39.059 30.9483 32.6595 37.3493 24.7911 37.3525H24.7852C22.3967 37.3517 20.0498 36.7524 17.9653 35.6155L10.4 37.6L12.4246 30.2048C11.1757 28.0405 10.5186 25.5855 10.5196 23.0702C10.5228 15.2017 16.9248 8.8 24.7909 8.8C28.6086 8.80165 32.1918 10.2879 34.8862 12.9854C37.5806 15.6828 39.0637 19.2683 39.0621 23.0815Z" fill="#2E2E2E"/>
<path fill-rule="evenodd" clip-rule="evenodd" d="M13.826 34.2096L18.3154 33.0319L18.7485 33.289C20.5697 34.3697 22.6573 34.9415 24.7858 34.9424H24.7906C31.3284 34.9424 36.6495 29.6212 36.6521 23.0807C36.6533 19.9112 35.4207 16.9311 33.1812 14.689C30.9417 12.4469 27.9635 11.2115 24.7953 11.2104C18.2525 11.2104 12.9313 16.5311 12.9287 23.0711C12.9278 25.3124 13.5549 27.4951 14.7423 29.3836L15.0243 29.8324L13.826 34.2096ZM31.4919 26.1541C31.7407 26.2743 31.9086 26.3554 31.9803 26.4751C32.0694 26.6238 32.0694 27.3378 31.7724 28.1709C31.4752 29.0038 30.0506 29.764 29.3654 29.8663C28.7511 29.9582 27.9737 29.9965 27.1195 29.725C26.6016 29.5607 25.9374 29.3413 25.0866 28.9739C21.7437 27.5304 19.4846 24.2904 19.0576 23.678C19.0277 23.6351 19.0068 23.6051 18.9951 23.5896L18.9922 23.5857C18.8035 23.3339 17.539 21.6468 17.539 19.9008C17.539 18.2583 18.3459 17.3973 18.7173 17.001C18.7427 16.9739 18.7661 16.9489 18.7871 16.926C19.1139 16.569 19.5003 16.4798 19.738 16.4798C19.9757 16.4798 20.2137 16.482 20.4214 16.4924C20.447 16.4937 20.4737 16.4935 20.5013 16.4934C20.7091 16.4921 20.9681 16.4906 21.2237 17.1045C21.322 17.3408 21.4659 17.691 21.6176 18.0603C21.9244 18.8074 22.2635 19.6328 22.3231 19.7522C22.4123 19.9307 22.4717 20.1389 22.3529 20.377C22.335 20.4127 22.3185 20.4464 22.3028 20.4785C22.2135 20.6608 22.1478 20.7949 21.9963 20.9718C21.9367 21.0414 21.8751 21.1164 21.8135 21.1913C21.6909 21.3407 21.5682 21.4901 21.4614 21.5965C21.2829 21.7743 21.097 21.9673 21.3051 22.3243C21.5131 22.6813 22.2287 23.8489 23.2888 24.7945C24.4283 25.8109 25.4187 26.2405 25.9207 26.4583C26.0187 26.5008 26.0981 26.5352 26.1564 26.5644C26.5129 26.7429 26.7209 26.7131 26.9289 26.4751C27.1369 26.2372 27.8203 25.4339 28.058 25.0769C28.2957 24.7201 28.5335 24.7795 28.8603 24.8985C29.1872 25.0176 30.9403 25.8801 31.2969 26.0586C31.3665 26.0935 31.4316 26.1249 31.4919 26.1541Z" fill="#2E2E2E"/>
</svg>
